<svg xmlns="http://www.w3.org/2000/svg" xmlns:xlink="http://www.w3.org/1999/xlink" width="64" height="64" viewBox="0 0 64 64" fill="none"><path     fill="url(#linear_fill_0_5_0)"  d="M0 50L0 14C0 6.26801 6.26801 0 14 0L50 0C57.732 0 64 6.26801 64 14L64 50C64 57.732 57.732 64 50 64L14 64C6.26801 64 0 57.732 0 50Z"></path><path d="M24.8846 16L19.8077 16C17.7008 16 16 17.7008 16 19.8077L16 40.1154C16 42.2223 17.7008 43.9231 19.8077 43.9231L24.8846 43.9231C26.9915 43.9231 28.6923 45.6238 28.6923 47.7308C28.6923 48.4415 29.2508 49 29.9615 49C30.6723 49 31.2308 48.4415 31.2308 47.7308L31.2308 22.3462C31.2308 18.8431 28.3877 16 24.8846 16Z"   fill="url(#linear_fill_0_7)" ></path><g filter="url(#filter_0_8)"><path d="M45.1923 16L40.1154 16C36.6123 16 33.7692 18.8431 33.7692 22.3462L33.7692 47.7308C33.7692 48.4415 34.3277 49 35.0385 49C35.7492 49 36.3077 48.4415 36.3077 47.7308C36.3077 45.6238 38.0085 43.9231 40.1154 43.9231L45.1923 43.9231C47.2992 43.9231 49 42.2223 49 40.1154L49 19.8077C49 17.7008 47.2992 16 45.1923 16Z"   fill="url(#linear_fill_0_8)" fill-opacity="0.81"></path></g><defs><linearGradient id="linear_fill_0_5_0" x1="19.62496" y1="13.37472" x2="56.40576" y2="59.27104" gradientUnits="userSpaceOnUse"><stop offset="0" stop-color="#FFAA00"  /><stop offset="1" stop-color="#FFD54A"  /></linearGradient><linearGradient id="linear_fill_0_7" x1="17.56207275390625" y1="23.127670288085938" x2="31.230758666992188" y2="45.0885009765625" gradientUnits="userSpaceOnUse"><stop offset="0" stop-color="#FFFFFF"  /><stop offset="1" stop-color="#FFFFFF"  /></linearGradient><linearGradient id="linear_fill_0_8" x1="50.37823486328125" y1="16" x2="27.314727783203125" y2="53.63384246826172" gradientUnits="userSpaceOnUse"><stop offset="0" stop-color="#FFFFFF" stop-opacity="0.81" /><stop offset="1" stop-color="#FFFFFF" stop-opacity="0.43" /></linearGradient><filter id="filter_0_8" x="30.76922607421875" y="16" width="21.23077392578125" height="40.99998474121094" filterUnits="userSpaceOnUse" color-interpolation-filters="sRGB"><feFlood flood-opacity="0" result="feFloodId_0_8"/><feColorMatrix in="SourceAlpha" type="matrix" values="0 0 0 0 0 0 0 0 0 0 0 0 0 0 0 0 0 0 127 0" result="hardAlpha_0_8"/><feOffset dx="0" dy="5"/><feGaussianBlur stdDeviation="1.5"/><feComposite in2="hardAlpha_0_8" operator="out"/><feColorMatrix type="matrix" values="0 0 0 0 0 0 0 0 0 0 0 0 0 0 0 0 0 0 0.06 0"/><feBlend mode="normal" in2="feFloodId_0_8" result="dropShadow_1_0_8"/><feBlend mode="normal" in="SourceGraphic" in2="dropShadow_1_0_8" result="shape_0_8"/></filter></defs></svg>